<svg width="100%" height="100%" viewBox="0 0 90 64" fill="none" xmlns="http://www.w3.org/2000/svg">
    <path d="M87.4 0.700012H2.6C2.25856 0.700012 1.92047 0.767263 1.60502 0.897925C1.28958 1.02859 1.00295 1.2201 0.761522 1.46153C0.52009 1.70297 0.328575 1.98959 0.197913 2.30504C0.067251 2.62048 0 2.95857 0 3.30001L0 60.7C0 62.1 1.2 63.3 2.6 63.3H87.4C88.8 63.3 90 62.1 90 60.7V3.30001C90 1.90001 88.8 0.700012 87.4 0.700012V0.700012ZM13.6 56C13.6 56.7 13 57.3 12.3 57.3H6.3C5.6 57.3 5 56.7 5 56V50C5 49.3 5.6 48.7 6.3 48.7H12.3C13 48.7 13.6 49.3 13.6 50V56ZM13.6 42C13.6 42.7 13 43.3 12.3 43.3H6.3C5.6 43.3 5 42.7 5 42V36C5 35.3 5.6 34.7 6.3 34.7H12.3C13 34.7 13.6 35.3 13.6 36V42ZM13.6 28C13.6 28.7 13 29.3 12.3 29.3H6.3C5.6 29.3 5 28.7 5 28V22C5 21.3 5.6 20.7 6.3 20.7H12.3C13 20.7 13.6 21.3 13.6 22V28ZM13.6 14C13.6 14.7 13 15.3 12.3 15.3H6.3C5.6 15.3 5 14.7 5 14V8.00001C5 7.30001 5.6 6.70001 6.3 6.70001H12.3C13 6.70001 13.6 7.30001 13.6 8.00001V14ZM56.3 33.4L35.6 45.4C34.6 45.9 33.2 45.2 33.2 43.9V20.1C33.2 18.8 34.5 18.1 35.6 18.7L56.3 30.7C57.3 31.2 57.3 32.7 56.3 33.4V33.4ZM85 56C85 56.7 84.4 57.3 83.7 57.3H77.7C77 57.3 76.4 56.7 76.4 56V50C76.4 49.3 77 48.7 77.7 48.7H83.7C84.4 48.7 85 49.3 85 50V56ZM85 42C85 42.7 84.4 43.3 83.7 43.3H77.7C77 43.3 76.4 42.7 76.4 42V36C76.4 35.3 77 34.7 77.7 34.7H83.7C84.4 34.7 85 35.3 85 36V42ZM85 28C85 28.7 84.4 29.3 83.7 29.3H77.7C77 29.3 76.4 28.7 76.4 28V22C76.4 21.3 77 20.7 77.7 20.7H83.7C84.4 20.7 85 21.3 85 22V28ZM85 14C85 14.7 84.4 15.3 83.7 15.3H77.7C77 15.3 76.4 14.7 76.4 14V8.00001C76.4 7.30001 77 6.70001 77.7 6.70001H83.7C84.4 6.70001 85 7.30001 85 8.00001V14Z" fill="currentColor"/>
</svg>
